<svg width="429" height="151" viewBox="0 0 429 151" fill="none" xmlns="http://www.w3.org/2000/svg">
<path d="M395.42 9.38818L412.11 18.7764L420.455 37.5528V113.447L412.11 132.223L395.42 141.612H33.3803L16.6903 132.223L8.34521 113.447V37.5528L16.6903 18.7764L33.3803 9.38818H395.42Z" fill="#007EDB"/>
<path d="M395.428 132.223H41.7253V141.611H395.428V132.223Z" fill="#004FAC"/>
<path d="M412.11 122.835H403.765V132.223H412.11V122.835Z" fill="#004FAC"/>
<path d="M403.765 122.835H395.42V132.223H403.765V122.835Z" fill="#4AA3E5"/>
<path d="M420.455 113.447H412.11V122.835H420.455V113.447Z" fill="#62819B"/>
<path d="M41.7252 132.223H33.3801V141.611H41.7252V132.223Z" fill="#004FAC"/>
<path d="M33.3802 122.835H25.0352V132.223H33.3802V122.835Z" fill="#4AA3E5"/>
<path d="M25.0352 122.835H16.6902V132.223H25.0352V122.835Z" fill="#004FAC"/>
<path d="M16.6903 113.447H8.34521V122.835H16.6903V113.447Z" fill="#62819B"/>
<g opacity="0.29">
<path d="M387.083 9.49805H33.3801V18.8863H387.083V9.49805Z" fill="white"/>
<path d="M33.38 18.8862H25.0349V28.2744H33.38V18.8862Z" fill="white"/>
<path d="M41.7252 18.8862H33.3801V28.2744H41.7252V18.8862Z" fill="white"/>
<path d="M25.0352 18.8862H16.6902V28.2744H25.0352V18.8862Z" fill="white"/>
<path d="M395.42 9.49805H387.075V18.8863H395.42V9.49805Z" fill="white"/>
<path d="M395.42 18.7764H387.075V28.1646H395.42V18.7764Z" fill="white"/>
<path d="M403.764 18.8862H395.419V28.2744H403.764V18.8862Z" fill="white"/>
<path d="M412.11 18.8862H403.765V28.2744H412.11V18.8862Z" fill="white"/>
<path d="M25.0352 28.2739H16.6902V37.6621H25.0352V28.2739Z" fill="white"/>
<path d="M412.11 28.2739H403.765V37.6621H412.11V28.2739Z" fill="white"/>
</g>
<g opacity="0.29">
<path d="M395.428 122.835H41.7253V132.223H395.428V122.835Z" fill="white"/>
<path d="M412.11 113.447H403.765V122.835H412.11V113.447Z" fill="white"/>
<path d="M403.765 113.447H395.42V122.835H403.765V113.447Z" fill="white"/>
<path d="M420.455 104.058H412.11V113.446H420.455V104.058Z" fill="white"/>
<path d="M41.7742 122.835H33.4292V132.223H41.7742V122.835Z" fill="white"/>
<path d="M25.0352 113.447H16.6902V122.835H25.0352V113.447Z" fill="white"/>
<path d="M33.3802 113.447H25.0352V122.835H33.3802V113.447Z" fill="white"/>
<path d="M16.682 104.049H8.33691V113.438H16.682V104.049Z" fill="white"/>
</g>
<path d="M50.0704 18.8862H41.7253V28.2744H50.0704V18.8862Z" fill="white"/>
<path d="M58.4154 18.8862H50.0703V28.2744H58.4154V18.8862Z" fill="white"/>
<path d="M66.7606 18.8862H58.4155V28.2744H66.7606V18.8862Z" fill="white"/>
<path d="M75.1053 18.8862H66.7603V28.2744H75.1053V18.8862Z" fill="white"/>
<path d="M83.4505 18.8862H75.1055V28.2744H83.4505V18.8862Z" fill="white"/>
<path d="M41.7742 28.2197H33.4292V37.6079H41.7742V28.2197Z" fill="white"/>
<path d="M33.3802 28.2197H25.0352V37.6079H33.3802V28.2197Z" fill="white"/>
<path d="M395.42 113.438H387.075V122.826H395.42V113.438Z" fill="white"/>
<path d="M387.066 113.438H378.721V122.826H387.066V113.438Z" fill="white"/>
<path d="M403.764 104.04H395.419V113.428H403.764V104.04Z" fill="white"/>
<path d="M412.11 104.04H403.765V113.428H412.11V104.04Z" fill="white"/>
<path d="M395.428 0H41.7251V9.38821H395.428V0Z" fill="#003691"/>
<path d="M395.428 141.612H41.7251V151H395.428V141.612Z" fill="#003691"/>
<path d="M403.764 9.38818H395.419V18.7764H403.764V9.38818Z" fill="#003691"/>
<path d="M412.11 9.38818H403.765V18.7764H412.11V9.38818Z" fill="#003691"/>
<path d="M403.764 132.224H395.419V141.612H403.764V132.224Z" fill="#003691"/>
<path d="M412.11 132.224H403.765V141.612H412.11V132.224Z" fill="#003691"/>
<path d="M420.455 18.7764H412.11V28.1646H420.455V18.7764Z" fill="#003691"/>
<path d="M420.455 28.1641H412.11V37.5523H420.455V28.1641Z" fill="#003691"/>
<path d="M420.455 113.447H412.11V122.835H420.455V113.447Z" fill="#003691"/>
<path d="M420.455 122.835H412.11V132.223H420.455V122.835Z" fill="#003691"/>
<path d="M428.8 37.5532H420.455V46.9414H428.8V37.5532Z" fill="#003691"/>
<path d="M428.8 46.9414H420.455V104.059H428.8V46.9414Z" fill="#003691"/>
<path d="M428.8 104.059H420.455V113.447H428.8V104.059Z" fill="#003691"/>
<path d="M41.7252 141.612H33.3801V151H41.7252V141.612Z" fill="#003691"/>
<path d="M41.7252 0H33.3801V9.38821H41.7252V0Z" fill="#003691"/>
<path d="M33.38 132.224H25.0349V141.612H33.38V132.224Z" fill="#003691"/>
<path d="M25.0352 132.224H16.6902V141.612H25.0352V132.224Z" fill="#003691"/>
<path d="M33.38 9.38818H25.0349V18.7764H33.38V9.38818Z" fill="#003691"/>
<path d="M25.0352 9.38818H16.6902V18.7764H25.0352V9.38818Z" fill="#003691"/>
<path d="M16.6898 122.835H8.34473V132.223H16.6898V122.835Z" fill="#003691"/>
<path d="M16.6898 113.447H8.34473V122.835H16.6898V113.447Z" fill="#003691"/>
<path d="M16.6898 28.1641H8.34473V37.5523H16.6898V28.1641Z" fill="#003691"/>
<path d="M16.6898 18.7764H8.34473V28.1646H16.6898V18.7764Z" fill="#003691"/>
<path d="M8.34504 104.04H0V113.428H8.34504V104.04Z" fill="#003691"/>
<path d="M8.34504 46.9414H0V104.059H8.34504V46.9414Z" fill="#003691"/>
<path d="M8.34504 37.5532H0V46.9414H8.34504V37.5532Z" fill="#003691"/>
</svg>
