<svg width="195" height="51" viewBox="0 0 195 51" fill="none" xmlns="http://www.w3.org/2000/svg">
<g clip-path="url(#clip0_18_66207)">
<path d="M185.696 4.63428V9.27611H190.352V41.7238H185.696V46.3657H9.30441V41.7238H4.64844V9.27611H9.30441V4.63428H185.696Z" fill="#D3D8EE"/>
<path d="M13.9529 13.8502H9.30444V18.4845H13.9529V13.8502Z" fill="white"/>
<path d="M18.6013 9.24597H13.9529V13.8803H18.6013V9.24597Z" fill="white"/>
<path d="M23.2497 9.24597H18.6013V13.8803H23.2497V9.24597Z" fill="white"/>
<path d="M27.8982 9.24597H23.2498V13.8803H27.8982V9.24597Z" fill="white"/>
<path d="M32.5541 9.24597H27.9056V13.8803H32.5541V9.24597Z" fill="white"/>
<path d="M37.2025 9.24597H32.5541V13.8803H37.2025V9.24597Z" fill="white"/>
<path d="M190.344 37.0895H185.696V41.7238H190.344V37.0895Z" fill="#AFB6CE"/>
<path d="M185.696 37.0895H181.047V41.7238H185.696V37.0895Z" fill="#AFB6CE"/>
<path d="M185.696 41.7239H181.047V46.3582H185.696V41.7239Z" fill="#AFB6CE"/>
<path d="M182.934 41.7239V46.3657H9.30444V41.7239H182.934Z" fill="#AFB6CE"/>
<path d="M9.29686 37.0519H4.64844V41.6862H9.29686V37.0519Z" fill="#AFB6CE"/>
<path d="M13.9529 37.0519H9.30444V41.6862H13.9529V37.0519Z" fill="#AFB6CE"/>
<path d="M190.344 32.4552H185.696V37.0895H190.344V32.4552Z" fill="#AFB6CE"/>
<path d="M9.29686 32.4552H4.64844V37.0895H9.29686V32.4552Z" fill="#AFB6CE"/>
<g opacity="0.52">
<path d="M9.29686 9.24597H4.64844V13.8803H9.29686V9.24597Z" fill="white"/>
<path d="M13.9529 4.61169H9.30444V9.24601H13.9529V4.61169Z" fill="white"/>
<path d="M181.047 9.24601H12.0663V4.61169H181.047H185.696V9.24601H181.047Z" fill="white"/>
<path d="M185.696 32.4552H181.047V37.0895H185.696V32.4552Z" fill="white"/>
<path d="M190.344 27.8209H185.696V32.4552H190.344V27.8209Z" fill="white"/>
<path d="M181.047 37.0895V41.7238H13.9529H9.30444H13.9529V37.0895H181.047Z" fill="white"/>
<path d="M13.9529 32.4552H9.30444V37.0895H13.9529V32.4552Z" fill="white"/>
<path d="M9.29686 27.8209H4.64844V32.4552H9.29686V27.8209Z" fill="white"/>
<path d="M190.344 9.24597H185.696V13.8803H190.344V9.24597Z" fill="white"/>
<path d="M185.696 9.24597H181.047V13.8803H185.696V9.24597Z" fill="white"/>
<path d="M13.9529 9.24597H9.30444V13.8803H13.9529V9.24597Z" fill="white"/>
<path d="M9.29686 13.8502H4.64844V18.4845H9.29686V13.8502Z" fill="white"/>
<path d="M190.344 13.933H185.696V18.5673H190.344V13.933Z" fill="white"/>
</g>
<path d="M185.696 27.8209H181.047V32.4552H185.696V27.8209Z" fill="white"/>
<path d="M181.047 32.4552H176.399V37.0895H181.047V32.4552Z" fill="white"/>
<path d="M176.391 32.4552H171.743V37.0895H176.391V32.4552Z" fill="white"/>
<path d="M190.344 4.63428H185.696V9.26859H190.344V4.63428Z" fill="#203B51"/>
<path d="M195 9.27612H190.352V13.9104H195V9.27612Z" fill="#203B51"/>
<path d="M190.344 41.7239H185.696V46.3582H190.344V41.7239Z" fill="#203B51"/>
<path d="M195 37.0896H190.352V41.7239H195V37.0896Z" fill="#203B51"/>
<path d="M195 32.4552H190.352V37.0895H195V32.4552Z" fill="#203B51"/>
<path d="M195 27.8209H190.352V32.4552H195V27.8209Z" fill="#203B51"/>
<path d="M195 23.1791H190.352V27.8134H195V23.1791Z" fill="#203B51"/>
<path d="M195 18.5448H190.352V23.1791H195V18.5448Z" fill="#203B51"/>
<path d="M185.696 46.3657H181.047V51H185.696V46.3657Z" fill="#203B51"/>
<path d="M182.934 46.3657V51H13.9529H9.30444V46.3657H182.934Z" fill="#203B51"/>
<path d="M9.29686 41.7239H4.64844V46.3582H9.29686V41.7239Z" fill="#203B51"/>
<path d="M4.64843 37.0896H0V41.7239H4.64843V37.0896Z" fill="#203B51"/>
<path d="M9.29686 4.63428H4.64844V9.26859H9.29686V4.63428Z" fill="#203B51"/>
<path d="M185.696 0V4.63431H9.30444V0H185.696Z" fill="#203B51"/>
<path d="M4.64843 9.27612H0V13.9104H4.64843V9.27612Z" fill="#203B51"/>
<path d="M4.64843 18.5448H0V23.1791H4.64843V18.5448Z" fill="#203B51"/>
<path d="M195 13.8502H190.352V18.4845H195V13.8502Z" fill="#203B51"/>
<path d="M4.64843 13.9104H0V18.5447H4.64843V13.9104Z" fill="#203B51"/>
<path d="M4.64843 23.1791H0V27.8134H4.64843V23.1791Z" fill="#203B51"/>
<path d="M4.64843 27.8209H0V32.4552H4.64843V27.8209Z" fill="#203B51"/>
<path d="M4.64843 32.4552H0V37.0895H4.64843V32.4552Z" fill="#203B51"/>
<path d="M55.4642 21.2908H58.5204V24.3377H55.4642V21.2908ZM55.4642 33.4709V30.424H64.6253V33.4709H55.4642ZM58.5204 21.2908V18.2439H67.6814V21.2908H58.5204ZM58.5204 27.3771H64.6253V24.3302H58.5204V27.3771ZM64.6328 27.3771H67.689V30.424H64.6328V27.3771Z" fill="#203B51"/>
<path d="M76.85 33.4709V21.2908H73.7938V18.2439H82.9548V21.2908H79.8987V33.4709H76.8425H76.85Z" fill="#203B51"/>
<path d="M89.1351 33.4709V21.2908H92.1913V24.3377H98.2961V21.2908H101.352V33.4709H98.2961V27.3771H92.1913V33.4709H89.1351ZM92.1913 18.2439V21.2908H98.2961V18.2439H92.1913Z" fill="#203B51"/>
<path d="M107.389 33.4709V18.2439H116.55V21.2908H110.445V24.3377H116.55V27.3846H110.445V33.4784H107.389V33.4709ZM113.502 27.3771H116.558V30.424H113.502V27.3771ZM116.558 21.2908H119.614V24.3377H116.558V21.2908ZM116.558 30.424H119.614V33.4709H116.558V30.424Z" fill="#203B51"/>
<path d="M128.775 33.4709V21.2908H125.719V18.2439H134.88V21.2908H131.824V33.4709H128.767H128.775Z" fill="#203B51"/>
</g>
<defs>
<clipPath id="clip0_18_66207">
<rect width="195" height="51" fill="white"/>
</clipPath>
</defs>
</svg>
